<?xml version="1.0" encoding="utf-8"?><svg viewBox="0 0 130 35" xmlns="http://www.w3.org/2000/svg" xmlns:xlink="http://www.w3.org/1999/xlink"><style>:root>svg{display:none}:root>svg:target{display:block}</style><svg fill="none" viewBox="0 0 7 12" id="arrow-left" xmlns="http://www.w3.org/2000/svg"><path d="M6 1 1 6l5 5" stroke="#1B1A17" stroke-width=".5"/></svg><svg fill="none" viewBox="0 0 7 12" id="arrow-right" xmlns="http://www.w3.org/2000/svg"><path d="m1 11 5-5-5-5" stroke="#1B1A17" stroke-width=".5"/></svg><svg fill="none" viewBox="0 0 18 16" id="basket" xmlns="http://www.w3.org/2000/svg"><path d="M17.896 3.052a.586.586 0 0 0-.449-.233L6.282 2.364c-.32-.013-.588.22-.602.522-.014.3.233.555.552.568l10.41.424-2.047 6.031H5.487L3.84 1.447a.554.554 0 0 0-.357-.41L.79.038A.59.59 0 0 0 .04.347c-.116.28.03.597.326.707l2.397.89 1.674 8.61a.57.57 0 0 0 .568.447h.278l-.634 1.664a.433.433 0 0 0 .06.416.49.49 0 0 0 .393.193h.445c-.276.29-.445.671-.445 1.09 0 .903.777 1.637 1.732 1.637.956 0 1.733-.734 1.733-1.636 0-.42-.17-.802-.445-1.091H11.9c-.276.29-.445.671-.445 1.09 0 .903.777 1.637 1.732 1.637.956 0 1.733-.734 1.733-1.636 0-.42-.17-.802-.445-1.091h.541a.468.468 0 0 0 .481-.455.468.468 0 0 0-.481-.454h-9.23L6.307 11h8.71a.575.575 0 0 0 .55-.379l2.406-7.091a.52.52 0 0 0-.076-.478ZM6.834 15.092c-.424 0-.77-.327-.77-.728 0-.401.346-.727.77-.727.425 0 .77.326.77.727 0 .401-.345.727-.77.727Zm6.353 0c-.425 0-.77-.327-.77-.728 0-.401.345-.727.77-.727.425 0 .77.326.77.727 0 .401-.345.727-.77.727Z" fill="#1B1A17"/></svg><svg fill="none" viewBox="0 0 12 22" id="facebook" xmlns="http://www.w3.org/2000/svg"><path d="M8.832.571c-3.136 0-5.284 1.73-5.284 4.906v2.737H0v3.713h3.548v9.522h4.24v-9.522h3.539l.531-3.713h-4.07v-2.37c0-1.075.332-1.808 2.037-1.808H12V.718C11.624.672 10.334.571 8.832.571Z" fill="#5C5C50"/></svg><svg fill="none" viewBox="0 0 21 18" id="heart" xmlns="http://www.w3.org/2000/svg"><path d="M19.969 5.771c-.278-2.765-2.438-4.77-5.142-4.77-1.802 0-3.451.877-4.38 2.285C9.527 1.86 7.947 1 6.173 1 3.47 1 1.31 3.006 1.032 5.77c-.022.123-.112.766.161 1.814.394 1.512 1.304 2.887 2.63 3.976l6.62 5.44 6.733-5.44c1.327-1.09 2.237-2.464 2.63-3.976.274-1.048.184-1.69.163-1.813Zm-.874 1.661c-.36 1.38-1.193 2.639-2.408 3.636l-6.24 5.042-6.132-5.041c-1.217-.999-2.05-2.256-2.41-3.637-.259-.992-.153-1.552-.152-1.556l.005-.033c.238-2.423 2.094-4.181 4.415-4.181 1.713 0 3.22.953 3.936 2.487l.337.723.336-.723c.704-1.51 2.292-2.487 4.045-2.487 2.32 0 4.178 1.759 4.42 4.212 0 .006.107.566-.152 1.558Z" fill="#1B1A17" stroke="#1B1A17" stroke-width=".75"/></svg><svg fill="none" viewBox="0 0 23 24" id="instagram" xmlns="http://www.w3.org/2000/svg"><path d="M6.657.673C2.986.673 0 3.64 0 7.283v9.558c0 3.644 2.986 6.608 6.657 6.608h9.686c3.671 0 6.657-2.964 6.657-6.608V7.283c0-3.644-2.986-6.61-6.657-6.61H6.657Zm0 1.958h9.686c2.613 0 4.686 2.058 4.686 4.652v9.558c0 2.593-2.073 4.65-4.686 4.65H6.657c-2.613 0-4.685-2.056-4.685-4.65V7.283c0-2.594 2.072-4.652 4.685-4.652ZM17.673 4.59c-.762 0-1.38.613-1.38 1.37 0 .756.618 1.368 1.38 1.368.762 0 1.379-.612 1.379-1.369 0-.756-.617-1.369-1.38-1.369ZM11.5 6.197c-3.251 0-5.907 2.637-5.907 5.864s2.656 5.864 5.907 5.864 5.909-2.637 5.909-5.864-2.658-5.864-5.909-5.864Zm0 1.958c2.185 0 3.937 1.737 3.937 3.906 0 2.17-1.752 3.906-3.937 3.906-2.185 0-3.935-1.737-3.935-3.906 0-2.17 1.75-3.906 3.935-3.906Z" fill="#5C5C50"/></svg><svg fill="none" viewBox="0 0 104 26" id="logo" xmlns="http://www.w3.org/2000/svg"><path d="M30.136 9.336c.48 0 .888.068 1.224.204.336.136.664.328.984.576.088.072.164.108.228.108.16 0 .264-.24.312-.72h.276c-.032.52-.048 1.44-.048 2.76h-.276c-.088-.52-.168-.892-.24-1.116a1.984 1.984 0 0 0-.36-.66 2.167 2.167 0 0 0-.924-.696 2.977 2.977 0 0 0-1.2-.24c-.52 0-.976.172-1.368.516-.384.344-.684.836-.9 1.476-.216.632-.324 1.376-.324 2.232 0 .872.116 1.62.348 2.244.232.624.552 1.1.96 1.428.416.32.884.48 1.404.48.4 0 .788-.076 1.164-.228a1.96 1.96 0 0 0 .888-.684c.16-.224.276-.464.348-.72.072-.256.14-.648.204-1.176h.276c0 1.376.016 2.336.048 2.88h-.276c-.024-.256-.06-.436-.108-.54-.04-.112-.1-.168-.18-.168a.526.526 0 0 0-.252.096c-.36.256-.704.452-1.032.588-.328.128-.724.192-1.188.192-.76 0-1.428-.172-2.004-.516-.568-.344-1.012-.84-1.332-1.488-.312-.656-.468-1.436-.468-2.34 0-.88.16-1.66.48-2.34.328-.68.78-1.208 1.356-1.584a3.578 3.578 0 0 1 1.98-.564Zm9.942 0c.76 0 1.424.172 1.992.516.576.344 1.02.844 1.332 1.5.32.648.48 1.424.48 2.328 0 .88-.164 1.66-.492 2.34-.32.68-.772 1.208-1.356 1.584-.576.376-1.232.564-1.968.564-.76 0-1.428-.172-2.004-.516-.568-.344-1.012-.84-1.332-1.488-.312-.656-.468-1.436-.468-2.34 0-.88.16-1.66.48-2.34.328-.68.78-1.208 1.356-1.584a3.578 3.578 0 0 1 1.98-.564Zm-.048.216c-.512 0-.964.18-1.356.54-.384.352-.684.848-.9 1.488-.208.64-.312 1.372-.312 2.196 0 .832.116 1.564.348 2.196.24.632.56 1.12.96 1.464.4.344.848.516 1.344.516.512 0 .96-.176 1.344-.528.392-.36.692-.86.9-1.5.216-.64.324-1.372.324-2.196 0-.832-.12-1.564-.36-2.196-.232-.632-.548-1.12-.948-1.464-.4-.344-.848-.516-1.344-.516Zm14.117.192c-.28.016-.488.06-.624.132a.512.512 0 0 0-.276.336c-.048.152-.072.38-.072.684v7.164h-.276l-5.04-7.788v6.336c0 .312.024.544.072.696.056.152.16.264.312.336.152.064.388.104.708.12V18a15.76 15.76 0 0 0-1.224-.036c-.48 0-.852.012-1.116.036v-.24c.28-.016.488-.056.624-.12a.553.553 0 0 0 .276-.336c.048-.16.072-.392.072-.696v-5.832c0-.304-.024-.524-.072-.66a.431.431 0 0 0-.276-.276c-.128-.048-.336-.08-.624-.096v-.24c.264.024.636.036 1.116.036.36 0 .672-.012.936-.036l4.236 6.528v-5.136c0-.312-.028-.544-.084-.696a.503.503 0 0 0-.3-.324c-.152-.072-.388-.116-.708-.132v-.24c.288.024.696.036 1.224.036.48 0 .852-.012 1.116-.036v.24Zm11.186 8.604c-.176.608-.428 1.064-.756 1.368-.392.36-.932.54-1.62.54-.368 0-.728-.056-1.08-.168a13.204 13.204 0 0 1-1.332-.528 20.394 20.394 0 0 0-1.452-.576l-.288-.084c-.344.12-.676.18-.996.18-.368 0-.552-.08-.552-.24 0-.168.216-.252.648-.252.28 0 .58.032.9.096.256-.072.552-.184.888-.336.208-.096.364-.164.468-.204-.68-.064-1.272-.276-1.776-.636-.496-.36-.884-.852-1.164-1.476-.272-.632-.408-1.368-.408-2.208 0-.88.16-1.66.48-2.34.328-.68.78-1.208 1.356-1.584a3.578 3.578 0 0 1 1.98-.564c.76 0 1.424.172 1.992.516.576.344 1.02.844 1.332 1.5.32.648.48 1.424.48 2.328 0 .832-.144 1.576-.432 2.232-.288.648-.692 1.168-1.212 1.56a3.51 3.51 0 0 1-1.788.672v.012c-.192.024-.36.056-.504.096-.136.048-.32.12-.552.216a5.96 5.96 0 0 1-.72.276c.888.176 1.64.316 2.256.42.624.104 1.14.156 1.548.156.568 0 1.016-.084 1.344-.252.336-.16.596-.424.78-.792l.18.072Zm-7.32-4.572c0 .832.116 1.564.348 2.196.24.632.56 1.12.96 1.464.4.344.848.516 1.344.516.512 0 .96-.176 1.344-.528.392-.36.692-.86.9-1.5.216-.64.324-1.372.324-2.196 0-.832-.12-1.564-.36-2.196-.232-.632-.548-1.12-.948-1.464-.4-.344-.848-.516-1.344-.516-.512 0-.964.18-1.356.54-.384.352-.684.848-.9 1.488-.208.64-.312 1.372-.312 2.196Zm16.528-4.032c-.28.016-.488.06-.624.132a.512.512 0 0 0-.276.336c-.048.152-.072.38-.072.684v3.612c0 .576-.04 1.072-.12 1.488-.072.408-.196.76-.372 1.056-.2.344-.496.616-.888.816-.384.2-.82.3-1.308.3-.88 0-1.552-.216-2.016-.648a2.44 2.44 0 0 1-.708-1.116c-.12-.416-.18-1.036-.18-1.86v-3.768c0-.304-.024-.524-.072-.66a.431.431 0 0 0-.276-.276c-.128-.048-.336-.08-.624-.096v-.24c.336.024.848.036 1.536.036.648 0 1.156-.012 1.524-.036v.24c-.288.016-.5.048-.636.096a.432.432 0 0 0-.264.276c-.048.136-.072.356-.072.66v3.972c0 .64.044 1.172.132 1.596.088.424.268.764.54 1.02.28.256.688.384 1.224.384.848 0 1.444-.272 1.788-.816.344-.544.516-1.308.516-2.292v-3.744c0-.432-.08-.728-.24-.888-.152-.16-.436-.248-.852-.264v-.24c.288.024.696.036 1.224.036.48 0 .852-.012 1.116-.036v.24Zm8.648 6.72c0 .456.028.968.084 1.536a71.543 71.543 0 0 0-2.748-.036c-1.536 0-2.696.012-3.48.036v-.24c.288-.016.496-.048.624-.096a.431.431 0 0 0 .276-.276c.048-.136.072-.356.072-.66v-5.952c0-.304-.024-.524-.072-.66a.431.431 0 0 0-.276-.276c-.128-.048-.336-.08-.624-.096v-.24c.784.024 1.944.036 3.48.036 1.176 0 2.012-.012 2.508-.036-.056.528-.084 1-.084 1.416 0 .312.012.56.036.744h-.276c-.056-.52-.128-.904-.216-1.152a.943.943 0 0 0-.444-.552c-.208-.12-.524-.18-.948-.18h-.996c-.288 0-.5.024-.636.072a.397.397 0 0 0-.264.264c-.048.136-.072.356-.072.66v2.832h.792c.28 0 .496-.064.648-.192a.963.963 0 0 0 .3-.468c.056-.184.1-.412.132-.684l.036-.24h.276c-.024.336-.036.712-.036 1.128v.576c0 .408.024.976.072 1.704h-.276a49.511 49.511 0 0 1-.072-.576c-.04-.336-.152-.588-.336-.756-.176-.168-.424-.252-.744-.252h-.792v2.88c0 .304.024.524.072.66a.432.432 0 0 0 .264.276c.136.04.348.06.636.06h.876c.496 0 .872-.064 1.128-.192.264-.136.456-.348.576-.636.12-.296.208-.728.264-1.296h.276a8.194 8.194 0 0 0-.036.864Zm5.417-7.092c.352 0 .628.04.828.12.208.072.42.18.636.324.176.112.312.168.408.168.072 0 .128-.04.168-.12.04-.088.072-.224.096-.408h.276c-.04.464-.06 1.28-.06 2.448h-.276c-.048-.648-.236-1.192-.564-1.632-.32-.448-.788-.672-1.404-.672-.432 0-.784.132-1.056.396-.272.256-.408.588-.408.996 0 .304.068.568.204.792.144.224.324.416.54.576.216.16.524.364.924.612l.348.216c.504.312.9.588 1.188.828.296.232.532.5.708.804.176.304.264.66.264 1.068 0 .728-.24 1.292-.72 1.692-.48.392-1.088.588-1.824.588-.384 0-.7-.04-.948-.12a3.426 3.426 0 0 1-.696-.324c-.176-.112-.312-.168-.408-.168-.072 0-.128.044-.168.132-.04.08-.072.212-.096.396h-.276c.032-.44.048-1.4.048-2.88h.276c.056.808.256 1.464.6 1.968s.872.756 1.584.756c.432 0 .8-.132 1.104-.396.304-.272.456-.672.456-1.2 0-.448-.152-.828-.456-1.14-.296-.312-.768-.664-1.416-1.056a14.268 14.268 0 0 1-1.152-.768 2.834 2.834 0 0 1-.708-.804 2.2 2.2 0 0 1-.276-1.116c0-.672.216-1.184.648-1.536.432-.36.968-.54 1.608-.54Zm12.192.132c-.056.568-.084 1.08-.084 1.536 0 .4.012.728.036.984h-.276c-.064-.616-.144-1.072-.24-1.368-.096-.304-.264-.524-.504-.66-.24-.144-.608-.216-1.104-.216h-.648v6.828c0 .336.032.58.096.732a.542.542 0 0 0 .336.312c.16.056.42.092.78.108V18a32.751 32.751 0 0 0-1.764-.036c-.8 0-1.392.012-1.776.036v-.24c.36-.016.62-.052.78-.108a.542.542 0 0 0 .336-.312c.064-.152.096-.396.096-.732V9.78h-.648c-.496 0-.864.072-1.104.216-.24.136-.408.356-.504.66-.096.296-.176.752-.24 1.368h-.276c.024-.256.036-.584.036-.984 0-.456-.028-.968-.084-1.536.664.024 1.792.036 3.384.036 1.584 0 2.708-.012 3.372-.036Z" fill="#555248"/><path d="M21.01 8.694a9.092 9.092 0 0 1-3.718 12.316 9.052 9.052 0 0 1-5.352 1.02A9.097 9.097 0 0 1 8.694 4.976a9.07 9.07 0 0 1 8.06-.266 9.055 9.055 0 0 1 4.256 3.984Z" stroke="url(#ha)"/><defs><linearGradient id="ha" x1="3.756" y1="11.723" x2="23.965" y2="12.992" gradientUnits="userSpaceOnUse"><stop offset=".288" stop-color="#555248"/><stop offset=".78" stop-color="#1B1A17" stop-opacity="0"/></linearGradient></defs></svg><svg fill="none" viewBox="0 0 130 35" id="logo-footer" xmlns="http://www.w3.org/2000/svg"><path d="M39.558 16.892c.56 0 1.036.08 1.428.238.392.159.775.383 1.148.672.103.084.191.126.266.126.187 0 .308-.28.364-.84h.322c-.037.635-.056 1.764-.056 3.388h-.322c-.084-.69-.196-1.218-.336-1.582a2.257 2.257 0 0 0-.714-.952 2.288 2.288 0 0 0-.812-.504 2.613 2.613 0 0 0-.966-.182c-.943 0-1.643.462-2.1 1.386-.457.915-.686 2.058-.686 3.43 0 1.363.238 2.501.714 3.416s1.185 1.372 2.128 1.372c.317 0 .63-.056.938-.168a2.15 2.15 0 0 0 .798-.518c.345-.261.583-.588.714-.98.14-.392.247-.966.322-1.722h.322c0 1.69.019 2.865.056 3.528h-.322c-.028-.299-.07-.509-.126-.63-.047-.13-.117-.196-.21-.196-.075 0-.173.037-.294.112-.42.299-.821.527-1.204.686-.383.15-.845.224-1.386.224-.99 0-1.857-.2-2.604-.602a4.228 4.228 0 0 1-1.722-1.736c-.41-.765-.616-1.675-.616-2.73 0-1.027.21-1.937.63-2.73a4.578 4.578 0 0 1 1.75-1.848c.756-.439 1.615-.658 2.576-.658Zm11.831 0c.99 0 1.853.2 2.59.602a4.185 4.185 0 0 1 1.736 1.75c.41.756.616 1.661.616 2.716 0 1.027-.21 1.937-.63 2.73a4.55 4.55 0 0 1-1.764 1.848c-.747.439-1.6.658-2.562.658-.99 0-1.857-.2-2.604-.602a4.228 4.228 0 0 1-1.722-1.736c-.41-.765-.616-1.675-.616-2.73 0-1.027.21-1.937.63-2.73a4.578 4.578 0 0 1 1.75-1.848c.756-.439 1.615-.658 2.576-.658Zm-.056.252c-.513 0-.966.21-1.358.63-.392.41-.695.99-.91 1.736-.205.747-.308 1.6-.308 2.562 0 .97.117 1.825.35 2.562.243.737.565 1.307.966 1.708.41.401.863.602 1.358.602.513 0 .966-.205 1.358-.616.392-.42.69-1.003.896-1.75.215-.747.322-1.6.322-2.562 0-.97-.121-1.825-.364-2.562-.233-.737-.555-1.307-.966-1.708-.401-.401-.85-.602-1.344-.602Zm17.152.224c-.308.047-.536.126-.686.238-.14.112-.238.29-.294.532-.046.243-.07.602-.07 1.078v7.812l-.336-.014-.378.014-6.076-7.7v5.376c0 .55.028.957.084 1.218.056.252.178.439.364.56.187.112.49.191.91.238V27a20.923 20.923 0 0 0-1.512-.042c-.513 0-.92.014-1.218.042v-.28c.308-.047.532-.126.672-.238.15-.112.248-.29.294-.532.056-.243.084-.602.084-1.078v-6.3c0-.355-.028-.611-.084-.77a.464.464 0 0 0-.294-.322c-.14-.056-.364-.093-.672-.112v-.28c.299.028.705.042 1.218.042.467 0 .868-.014 1.204-.042l5.418 6.678v-4.382c0-.55-.028-.952-.084-1.204-.056-.261-.177-.448-.364-.56-.186-.121-.49-.205-.91-.252v-.28c.364.028.868.042 1.512.042.523 0 .929-.014 1.218-.042v.28ZM81.7 26.902c-.159 1.055-.48 1.783-.966 2.184a2.206 2.206 0 0 1-.784.392 3.216 3.216 0 0 1-1.022.154c-.504 0-1.003-.08-1.498-.238a20.163 20.163 0 0 1-1.806-.714 57.58 57.58 0 0 1-.588-.252 54.963 54.963 0 0 0-.7-.28L74 28.05a2.31 2.31 0 0 1-.588.21 2.234 2.234 0 0 1-.588.084c-.196 0-.355-.033-.476-.098-.121-.056-.182-.145-.182-.266 0-.252.257-.378.77-.378.345 0 .7.065 1.064.196.317-.093.653-.22 1.008-.378l.294-.126.35-.126c-.868-.084-1.629-.336-2.282-.756a4.309 4.309 0 0 1-1.498-1.736c-.345-.728-.518-1.577-.518-2.548 0-1.027.21-1.937.63-2.73a4.578 4.578 0 0 1 1.75-1.848c.756-.439 1.615-.658 2.576-.658.99 0 1.853.2 2.59.602a4.185 4.185 0 0 1 1.736 1.75c.41.756.616 1.661.616 2.716 0 .99-.196 1.876-.588 2.66a4.554 4.554 0 0 1-1.652 1.834c-.71.448-1.517.69-2.422.728a3.41 3.41 0 0 0-.602.126 7.297 7.297 0 0 0-.63.238c-.299.13-.588.238-.868.322l1.134.098c1.185.103 2.04.154 2.562.154.345 0 .695-.023 1.05-.07.579-.065 1.036-.191 1.372-.378.336-.177.616-.457.84-.84l.252.07Zm-8.022-4.83c0 .97.117 1.825.35 2.562.243.737.565 1.307.966 1.708.41.401.863.602 1.358.602.513 0 .966-.205 1.358-.616.392-.42.69-1.003.896-1.75.215-.747.322-1.6.322-2.562 0-.97-.121-1.825-.364-2.562-.233-.737-.555-1.307-.966-1.708-.401-.401-.85-.602-1.344-.602-.513 0-.966.21-1.358.63-.392.41-.695.99-.91 1.736-.205.747-.308 1.6-.308 2.562Zm19.461-4.704c-.308.047-.536.126-.686.238-.14.112-.238.29-.294.532-.046.243-.07.602-.07 1.078v3.71c0 1.335-.191 2.324-.574 2.968a2.57 2.57 0 0 1-1.092.966c-.476.224-1.059.336-1.75.336-1.082 0-1.922-.233-2.52-.7a2.525 2.525 0 0 1-.868-1.302c-.149-.532-.224-1.274-.224-2.226v-4.396c0-.355-.028-.611-.084-.77a.464.464 0 0 0-.294-.322c-.14-.056-.364-.093-.672-.112v-.28c.476.028 1.204.042 2.184.042.971 0 1.713-.014 2.226-.042v.28c-.336.019-.583.056-.742.112a.504.504 0 0 0-.308.322c-.056.159-.084.415-.084.77v5.278c0 .98.14 1.703.42 2.17.29.457.794.686 1.512.686.934 0 1.592-.313 1.974-.938.383-.635.574-1.53.574-2.688v-3.696c0-.541-.032-.943-.098-1.204-.065-.261-.191-.448-.378-.56-.186-.121-.48-.205-.882-.252v-.28c.355.028.859.042 1.512.042.523 0 .929-.014 1.218-.042v.28Zm10.367 7.504c0 .859.032 1.568.098 2.128a83.503 83.503 0 0 0-3.206-.042c-2.035 0-3.556.014-4.564.042v-.28c.308-.019.532-.056.672-.112a.464.464 0 0 0 .294-.322c.056-.159.084-.415.084-.77v-6.944c0-.355-.028-.611-.084-.77a.464.464 0 0 0-.294-.322c-.14-.056-.364-.093-.672-.112v-.28c1.008.028 2.529.042 4.564.042 1.372 0 2.347-.014 2.926-.042a24.65 24.65 0 0 0-.098 2.072c0 .41.014.728.042.952h-.322c-.14-.999-.392-1.699-.756-2.1s-.878-.602-1.54-.602h-.574c-.29 0-.5.023-.63.07a.42.42 0 0 0-.266.28c-.047.13-.07.345-.07.644v3.472h.448c.494 0 .868-.182 1.12-.546.261-.364.443-.798.546-1.302h.322c-.028.392-.042.83-.042 1.316v.672c0 .476.028 1.139.084 1.988h-.322c-.196-1.232-.766-1.848-1.708-1.848h-.448v3.528c0 .299.023.518.07.658a.42.42 0 0 0 .266.266c.13.047.34.07.63.07h.686c.662 0 1.194-.224 1.596-.672.41-.457.7-1.227.868-2.31h.322c-.028.308-.042.7-.042 1.176Zm6.661-7.966c.485 0 .872.047 1.162.14.289.093.583.229.882.406.102.056.191.103.266.14a.543.543 0 0 0 .21.056c.084 0 .149-.047.196-.14.046-.103.084-.261.112-.476h.322c-.047.625-.07 1.69-.07 3.192h-.322a4.491 4.491 0 0 0-.35-1.442 2.663 2.663 0 0 0-.812-1.106 1.84 1.84 0 0 0-1.218-.434c-.458 0-.831.13-1.12.392-.28.252-.42.597-.42 1.036 0 .327.07.611.21.854.14.243.336.467.588.672.252.196.639.467 1.162.812l.448.308c.55.364.984.681 1.302.952a3.3 3.3 0 0 1 .77.952c.205.355.308.77.308 1.246 0 .597-.154 1.101-.462 1.512-.308.401-.728.705-1.26.91a4.752 4.752 0 0 1-1.75.308c-.523 0-.957-.047-1.302-.14a4.288 4.288 0 0 1-.952-.378c-.206-.13-.364-.196-.476-.196-.084 0-.15.051-.196.154-.047.093-.084.247-.112.462h-.322c.037-.588.056-1.848.056-3.78h.322c.065 1.045.298 1.895.7 2.548.401.644 1.017.966 1.848.966.504 0 .919-.135 1.246-.406.326-.27.49-.658.49-1.162 0-.523-.168-.97-.504-1.344-.336-.373-.868-.793-1.596-1.26a16.765 16.765 0 0 1-1.344-.952 3.483 3.483 0 0 1-.826-.952 2.534 2.534 0 0 1-.322-1.288c0-.56.14-1.031.42-1.414a2.548 2.548 0 0 1 1.148-.868c.476-.187.998-.28 1.568-.28Zm15.147.182c-.065.887-.098 1.68-.098 2.38 0 .439.014.793.042 1.064h-.322c-.224-1.148-.532-1.955-.924-2.422-.382-.467-.91-.7-1.582-.7h-.322v7.994c0 .392.038.677.112.854a.681.681 0 0 0 .42.364c.206.056.528.089.966.098V27a121.691 121.691 0 0 0-2.66-.042c-.588 0-1.442.014-2.562.042v-.28c.439-.01.756-.042.952-.098a.633.633 0 0 0 .42-.364c.084-.177.126-.462.126-.854V17.41h-.308c-.448 0-.83.098-1.148.294-.308.196-.574.523-.798.98-.224.448-.415 1.064-.574 1.848h-.322c.028-.27.042-.625.042-1.064 0-.7-.032-1.493-.098-2.38.85.028 2.292.042 4.326.042 2.035 0 3.472-.014 4.312-.042Z" fill="#fff"/><path d="M27.183 11.538a11.549 11.549 0 0 1-4.723 15.645 11.499 11.499 0 0 1-6.798 1.296 11.542 11.542 0 0 1-8.847-6.019c-3.016-5.625-.901-12.63 4.723-15.645a11.522 11.522 0 0 1 10.24-.338 11.5 11.5 0 0 1 5.405 5.061Z" stroke="url(#ga)" stroke-width="2"/><defs><linearGradient id="ga" x1="4.914" y1="15.338" x2="31.354" y2="16.998" gradientUnits="userSpaceOnUse"><stop offset=".288" stop-color="#fff"/><stop offset=".78" stop-color="#fff" stop-opacity="0"/></linearGradient></defs></svg><svg fill="none" viewBox="0 0 16 16" id="search" xmlns="http://www.w3.org/2000/svg"><path d="m15.804 14.864-3.846-3.847A6.745 6.745 0 0 0 6.743 0a6.743 6.743 0 1 0 0 13.486 6.707 6.707 0 0 0 4.27-1.525l3.847 3.843a.666.666 0 0 0 .944-.94Zm-9.061-2.72a5.408 5.408 0 0 1-5.404-5.401 5.41 5.41 0 0 1 5.404-5.404 5.413 5.413 0 0 1 5.404 5.404 5.41 5.41 0 0 1-5.404 5.4Z" fill="#1B1A17"/></svg><svg fill="none" viewBox="0 0 22 18" id="twitter" xmlns="http://www.w3.org/2000/svg"><path d="M22 2.39a9.354 9.354 0 0 1-2.592.679A4.368 4.368 0 0 0 21.392.683a9.283 9.283 0 0 1-2.866 1.046A4.607 4.607 0 0 0 15.232.367c-2.493 0-4.513 1.931-4.513 4.313 0 .338.04.667.117.982-3.751-.18-7.077-1.897-9.303-4.505a4.145 4.145 0 0 0-.611 2.167c0 1.497.796 2.816 2.008 3.59a4.65 4.65 0 0 1-2.045-.54v.055c0 2.09 1.555 3.832 3.62 4.228a4.71 4.71 0 0 1-2.038.074c.575 1.713 2.241 2.96 4.216 2.995a9.331 9.331 0 0 1-5.606 1.846A9.67 9.67 0 0 1 0 15.512a13.215 13.215 0 0 0 6.92 1.937c8.3 0 12.84-6.57 12.84-12.27 0-.187-.005-.372-.013-.557a8.974 8.974 0 0 0 2.252-2.233" fill="#5C5C50"/></svg></svg>